<?xml version="1.0" encoding="UTF-8"?>
<svg version="1.1" xmlns="http://www.w3.org/2000/svg" width="200" height="200">
<path d="M0 0 C66 0 132 0 200 0 C200 66 200 132 200 200 C134 200 68 200 0 200 C0 134 0 68 0 0 Z " fill="#003E33" transform="translate(0,0)"/>
<path d="M0 0 C6.93762097 -0.0993819 13.87482128 -0.17171157 20.81298828 -0.21972656 C23.16983261 -0.23975732 25.52662778 -0.26698992 27.88330078 -0.30175781 C31.28430362 -0.35065172 34.6846455 -0.37305502 38.0859375 -0.390625 C39.12801361 -0.41127014 40.17008972 -0.43191528 41.2437439 -0.45318604 C52.73066835 -0.45665553 60.33696904 3.38955597 68.57421875 11.265625 C73.91486588 17.28567813 77.13730395 24.31665855 77.11352539 32.40136719 C77.11341209 33.6922525 77.11341209 33.6922525 77.11329651 35.00921631 C77.10813522 35.92914368 77.10297394 36.84907104 77.09765625 37.796875 C77.0962413 38.74564514 77.09482635 39.69441528 77.09336853 40.67193604 C77.08777742 43.69798962 77.07522652 46.72396883 77.0625 49.75 C77.05748385 51.80338435 77.05292115 53.85676986 77.04882812 55.91015625 C77.03781089 60.94013276 77.02055233 65.97005378 77 71 C71.06 71 65.12 71 59 71 C59 76.61 59 82.22 59 88 C52.16815547 88.07440849 45.33654925 88.12872484 38.50439453 88.16479492 C36.1824126 88.17983911 33.86045888 88.20027945 31.53857422 88.22631836 C28.19231177 88.26289345 24.84642656 88.27977054 21.5 88.29296875 C20.4694751 88.30845261 19.4389502 88.32393646 18.37719727 88.33988953 C11.0395401 88.34158541 5.62666039 87.27720536 -0.6875 83.3125 C-7.22370749 76.77629251 -9.14108069 70.71976228 -9.25 61.625 C-9.27578125 60.33851562 -9.3015625 59.05203125 -9.328125 57.7265625 C-8.84883903 52.28324322 -7.1179214 48.81549825 -3.1875 45.0859375 C2.28896444 40.67434114 8.74269459 37.75666839 15 34.625 C16.30691205 33.96252327 17.61330726 33.29902598 18.91918945 32.63452148 C20.84892259 31.65260348 22.77889765 30.67123135 24.71076965 29.69352722 C30.71862726 26.65056452 36.63846537 23.46016625 42.54296875 20.22265625 C45 19 45 19 47 19 C47 18.34 47 17.68 47 17 C31.49 17 15.98 17 0 17 C0 11.39 0 5.78 0 0 Z " fill="#03B981" transform="translate(19,56)"/>
<path d="M0 0 C6.97424209 -0.099196 13.94806956 -0.17162462 20.92285156 -0.21972656 C23.29336709 -0.23978826 25.66383345 -0.26704426 28.03417969 -0.30175781 C31.44999351 -0.35051418 34.86515055 -0.37302399 38.28125 -0.390625 C39.33364868 -0.41127014 40.38604736 -0.43191528 41.47033691 -0.45318604 C49.71113001 -0.4556747 54.57313357 1.62755401 61.25 6.25 C66.97966916 11.97966916 68.39485622 16.88531932 68.5 25 C68.42535321 31.31453888 67.69663804 35.80472492 64 41 C60.16527725 44.43364974 56.03356486 46.73995791 51.49609375 49.08203125 C50.77696304 49.45929855 50.05783234 49.83656586 49.31690979 50.2252655 C47.0263962 51.42610721 44.73226364 52.61980294 42.4375 53.8125 C40.16821265 54.99536694 37.89982803 56.17988865 35.6330719 57.36759949 C34.2286705 58.10312604 32.82283295 58.83592124 31.41514587 59.56513977 C25.13707649 62.84705164 19.14457683 66.41566351 13 70 C28.18 70.33 43.36 70.66 59 71 C59 76.61 59 82.22 59 88 C52.18646603 88.07447946 45.37317213 88.12875808 38.55932617 88.16479492 C36.24417998 88.17982729 33.929062 88.2002587 31.61401367 88.22631836 C28.27515676 88.26294596 24.9366783 88.27978241 21.59765625 88.29296875 C20.05961082 88.31619453 20.05961082 88.31619453 18.49049377 88.33988953 C7.10919508 88.34252018 -0.29474655 85.02523954 -8.65625 77.51171875 C-18.08365992 67.81976416 -18.60929618 55.63261282 -18.43945312 42.92773438 C-18.39769676 41.01431058 -18.35537231 39.10089911 -18.3125 37.1875 C-18.28736622 35.22333593 -18.2645621 33.2591406 -18.24414062 31.29492188 C-18.1938834 26.52852618 -18.09597098 21.76655884 -18 17 C-12.06 17 -6.12 17 0 17 C0 11.39 0 5.78 0 0 Z " fill="#03B981" transform="translate(122,56)"/>
<path d="M0 0 C0 12.87 0 25.74 0 39 C-6.47857262 39.09182229 -12.95488888 39.17146446 -19.43359375 39.21972656 C-21.6374476 39.23984419 -23.84124807 39.26714172 -26.04492188 39.30175781 C-29.21237356 39.35026833 -32.37911968 39.37296736 -35.546875 39.390625 C-37.02519806 39.42159271 -37.02519806 39.42159271 -38.53338623 39.45318604 C-45.37878547 39.45543244 -45.37878547 39.45543244 -48.59082031 37.10058594 C-50.98272309 33.53510924 -51.76423079 31.33064116 -51 27 C-49.59936523 25.81689453 -49.59936523 25.81689453 -47.68359375 24.6953125 C-46.95519287 24.26597412 -46.22679199 23.83663574 -45.47631836 23.39428711 C-40.83930481 20.78342401 -36.18506243 18.21131402 -31.5 15.6875 C-30.4486084 15.1193457 -29.3972168 14.55119141 -28.31396484 13.96582031 C-19.95861187 9.47100541 -11.52704654 5.1583953 -3 1 C-1 0 -1 0 0 0 Z " fill="#004134" transform="translate(78,88)"/>
<path d="M0 0 C6.46066764 -0.11486766 12.91778639 -0.21438434 19.37866211 -0.2746582 C21.5757244 -0.29978509 23.77270324 -0.33389246 25.96948242 -0.37719727 C29.12960405 -0.43792762 32.28861957 -0.46622833 35.44921875 -0.48828125 C36.91979988 -0.52699089 36.91979988 -0.52699089 38.42008972 -0.56648254 C42.94521188 -0.56833892 45.31376046 -0.45461182 49.15942383 2.09301758 C51.41241434 5.65136193 51.40557822 7.86310217 51 12 C41.50688984 17.52319772 31.89811555 22.74083126 22.125 27.75 C20.85923441 28.40207092 19.59360909 29.0544142 18.328125 29.70703125 C12.23747354 32.84387546 6.12806478 35.93596761 0 39 C0 26.13 0 13.26 0 0 Z " fill="#004033" transform="translate(122,73)"/>
<path d="M0 0 C14.85 0 29.7 0 45 0 C45 5.61 45 11.22 45 17 C38.14983161 17.04955879 31.29976837 17.08579503 24.44946289 17.10986328 C22.12066835 17.11990049 19.79188634 17.13353314 17.46313477 17.15087891 C14.10950621 17.17522727 10.75604479 17.18650615 7.40234375 17.1953125 C5.84881447 17.21079636 5.84881447 17.21079636 4.26390076 17.22659302 C-1.23096594 17.2274396 -5.8093968 16.83946576 -11 15 C-8 13 -8 13 -5 13 C-5 13.66 -5 14.32 -5 15 C19.255 15.495 19.255 15.495 44 16 C44 11.38 44 6.76 44 2 C22.22 1.505 22.22 1.505 0 1 C0 0.67 0 0.34 0 0 Z " fill="#13B183" transform="translate(136,127)"/>
<path d="M0 0 C15.51 0 31.02 0 47 0 C47 0.66 47 1.32 47 2 C45.68 2.33 44.36 2.66 43 3 C43 2.34 43 1.68 43 1 C28.81 1 14.62 1 0 1 C0 0.67 0 0.34 0 0 Z " fill="#005D3D" transform="translate(19,73)"/>
<path d="M0 0 C3.37996604 3.37996604 4.125 6.6387273 4.125 11.3125 C4.08375 12.529375 4.0425 13.74625 4 15 C3.7525 14.4225 3.505 13.845 3.25 13.25 C1.83316683 10.6997003 0.12372463 8.98214299 -2 7 C-1.34 4.69 -0.68 2.38 0 0 Z " fill="#0BAE7D" transform="translate(91,73)"/>
<path d="M0 0 C0.66 0.33 1.32 0.66 2 1 C1.01 1.33 0.02 1.66 -1 2 C-1.433125 2.9590625 -1.433125 2.9590625 -1.875 3.9375 C-3.42668891 6.782263 -4.94865242 7.07749957 -8 8 C-9.65919896 8.36871088 -11.3247643 8.71281674 -13 9 C-13 8.34 -13 7.68 -13 7 C-10.88002166 5.80266012 -8.75486324 4.61701287 -6.625 3.4375 C-6.02171875 3.09525391 -5.4184375 2.75300781 -4.796875 2.40039062 C-3.23021759 1.53872905 -1.61709138 0.76281817 0 0 Z " fill="#0BAD7D" transform="translate(136,104)"/>
<path d="M0 0 C1.65804926 2.4870739 3.19874478 4.97317502 4.6875 7.5625 C5.14511719 8.34753906 5.60273437 9.13257813 6.07421875 9.94140625 C6.37972656 10.62074219 6.68523437 11.30007812 7 12 C6.67 12.66 6.34 13.32 6 14 C5.34 14 4.68 14 4 14 C3.32471777 12.42032193 2.66010306 10.83608097 2 9.25 C1.62875 8.36828125 1.2575 7.4865625 0.875 6.578125 C0 4 0 4 0 0 Z " fill="#00523A" transform="translate(106,121)"/>
<path d="M0 0 C0 0.66 0 1.32 0 2 C-3.14220998 4.15465827 -6.36404378 5.8518033 -10 7 C-10.99 6.67 -11.98 6.34 -13 6 C-11.21118264 4.99491199 -9.41885304 3.99607264 -7.625 3 C-6.62726562 2.443125 -5.62953125 1.88625 -4.6015625 1.3125 C-2 0 -2 0 0 0 Z " fill="#0FAA7E" transform="translate(39,89)"/>
<path d="M0 0 C-1.97303774 1.97303774 -3.54291869 2.77145934 -6 4 C-6.66 4.66 -7.32 5.32 -8 6 C-8.66 5.67 -9.32 5.34 -10 5 C-10 4.34 -10 3.68 -10 3 C-3.375 -1.125 -3.375 -1.125 0 0 Z " fill="#005139" transform="translate(167,110)"/>
<path d="M0 0 C0.66 0.33 1.32 0.66 2 1 C1.319375 1.5878125 1.319375 1.5878125 0.625 2.1875 C-1.27642919 4.30832487 -2.06204028 6.33042235 -3 9 C-3.33 9 -3.66 9 -4 9 C-4.25 6.1875 -4.25 6.1875 -4 3 C-2 1.125 -2 1.125 0 0 Z " fill="#00543B" transform="translate(31,112)"/>
<path d="M0 0 C0 0.66 0 1.32 0 2 C0.99 2 1.98 2 3 2 C3 2.66 3 3.32 3 4 C-1.455 3.01 -1.455 3.01 -6 2 C-3 0 -3 0 0 0 Z " fill="#0CA97B" transform="translate(131,140)"/>
<path d="M0 0 C1.1446875 0.3403125 1.1446875 0.3403125 2.3125 0.6875 C-0.30948774 2.84127564 -2.33154172 4.08822174 -5.6875 4.6875 C-5.6875 2.6875 -5.6875 2.6875 -4.5 1 C-2.6875 -0.3125 -2.6875 -0.3125 0 0 Z " fill="#0CAF7E" transform="translate(53.6875,98.3125)"/>
</svg>
